<svg height="512" viewBox="0 0 61 60" width="512" xmlns="http://www.w3.org/2000/svg"><g id="Page-1" fill="none" fill-rule="evenodd"><g id="015---Cricket" fill-rule="nonzero" transform="translate(-1 -1)"><path id="Shape" d="m57.1 57.1c-2.76 2.76-6.27 3.72-7.85 2.14l-9.32-9.32c-.4938298-4.1135826-3.7364174-7.3561702-7.85-7.85l-16.48-16.48c-.375417-.3816243-.5870977-.8946809-.59-1.43v-4.87l7.14 2.86-2.86-7.14h4.87c.5353191.0029023 1.0483757.214583 1.43.59l33.65 33.65c1.58 1.58.62 5.09-2.14 7.85z" fill="#ffe0b2"/><path id="Shape" d="m59.24 49.25-33.65-33.65c-.3816243-.375417-.8946809-.5870977-1.43-.59h-3c.5353191.0029023 1.0483757.214583 1.43.59l33.65 33.65c1.58 1.58.62 5.09-2.14 7.85-1.1519783 1.1925274-2.5720037 2.092814-4.142 2.626 1.771.813 4.74-.224 7.142-2.626 2.76-2.76 3.72-6.27 2.14-7.85z" fill="#dfc49c"/><path id="Shape" d="m19.29 15.01-4.28 4.28-12.14-12.14c-1.16981351-1.17127019-1.16981351-3.06872981 0-4.24l.04-.04c1.17127019-1.16981351 3.06872981-1.16981351 4.24 0z" fill="#02a9f4"/><path id="Shape" d="m22.15 22.15-7.14-2.86 4.28-4.28z" fill="#0377bc"/><path id="Shape" d="m40 51c0 4.9705627-4.0294373 9-9 9s-9-4.0294373-9-9 4.0294373-9 9-9c.3612025-.0022399.7221087.0211522 1.08.07 4.1135826.4938298 7.3561702 3.7364174 7.85 7.85.0488478.3578913.0722399.7187975.07 1.08z" fill="#f44335"/><path id="Shape" d="m31 42c-.5028835.0032224-1.0046224.0483789-1.5.135 4.3297277.7267089 7.5010833 4.4747098 7.5010833 8.865s-3.1713556 8.1382911-7.5010833 8.865c3.3570875.5877651 6.7581917-.7711782 8.7859125-3.5104942 2.0277208-2.7393161 2.334161-6.389019.7916126-9.4281058-1.5425485-3.0390868-4.6694296-4.9461397-8.0775251-4.9264z" fill="#c81e1e"/><path id="Shape" d="m47.89 7.81c-.5109386.55130002-.8904252 1.21112808-1.11 1.93-.4619217-.18198399-.9535322-.27691567-1.45-.28-.9443483-.02716531-1.860749.3222543-2.5472744.9712647-.6865254.6490103-1.0868366 1.5443512-1.1127256 2.4887353-.0053198.4007597.0694773.798544.22 1.17-.0730401-.0080848-.1465276-.0114252-.22-.01-1.1941745-.0117215-2.3227552.545144-3.04 1.5-3.2067137-1.1484369-5.1212883-4.4383881-4.535579-7.79381122.5857093-3.35542316 3.5016604-5.80217693 6.9078145-5.7962979 3.406154.00587904 6.3136416 2.46268409 6.8877645 5.82010912z" fill="#ffdc00"/><path id="Shape" d="m41 2c-.5068365.00106371-1.012084.05671805-1.507.166 2.781601.6057682 4.9176732 2.8383592 5.4 5.644-.5109386.55130002-.8904252 1.21112808-1.11 1.93-.4619217-.18198399-.9535322-.27691567-1.45-.28-.9443483-.02716531-1.860749.3222543-2.5472744.9712647-.6865254.6490103-1.0868366 1.5443512-1.1127256 2.4887353-.0053198.4007597.0694773.798544.22 1.17-.0730401-.0080848-.1465276-.0114252-.22-.01-.6616168.0009711-1.3117112.1732272-1.887.5.5611997.4253685 1.1840388.7625851 1.847 1 .7172448-.954856 1.8458255-1.5117215 3.04-1.5.0734724-.0014252.1469599.0019152.22.01-.1505227-.371456-.2253198-.7692403-.22-1.17.025889-.9443841.4262002-1.839725 1.1127256-2.4887353.6865254-.6490104 1.6029261-.99843001 2.5472744-.9712647.4964678.00308433.9880783.09801601 1.45.28.2195748-.71887192.5990614-1.37869998 1.11-1.93-.574285-3.35796059-3.4862865-5.81244037-6.893-5.81z" fill="#fec108"/><path id="Shape" d="m60 17.54c-.0587822 1.9685392-1.7014136 3.517178-3.67 3.46h-14.66c-1.9685864.057178-3.6112178-1.4914608-3.67-3.46.0034423-.7025748.2234362-1.387.63-1.96.7172448-.954856 1.8458255-1.5117215 3.04-1.5.0734724-.0014252.1469599.0019152.22.01-.1505227-.371456-.2253198-.7692403-.22-1.17.025889-.9443841.4262002-1.839725 1.1127256-2.4887353.6865254-.6490104 1.6029261-.99843001 2.5472744-.9712647.4964678.00308433.9880783.09801601 1.45.28.2195748-.71887192.5990614-1.37869998 1.11-1.93 1.0715928-1.16574815 2.586617-1.82334858 4.17-1.81 2.9518019-.08518354 5.4139852 2.23822223 5.5 5.19-.0006293 1.0461092-.333265 2.065025-.95 2.91 1.860349.0732698 3.3439745 1.5787776 3.39 3.44z" fill="#f5f5f5"/><path id="Shape" d="m56.61 14.1c.616735-.844975.9493707-1.8638908.95-2.91-.0860148-2.95177777-2.5481981-5.27518354-5.5-5.19-.5065602.00129576-1.0107967.0685273-1.5.2 2.3109117.5627218 3.9531655 2.61102288 4 4.989.0002284.4263237-.0548991.8508727-.164 1.263-.2133656.8569088.1695721 1.7511111.937 2.188 1.0246178.6085887 1.6567699 1.7083134 1.667 2.9-.0587822 1.9685392-1.7014136 3.517178-3.67 3.46h3c1.9685864.057178 3.6112178-1.4914608 3.67-3.46-.0460255-1.8612224-1.529651-3.3667302-3.39-3.44z" fill="#cfd8dc"/><g fill="#000"><path id="Shape" d="m26.288 14.884c-.567279-.5591117-1.3315012-.8729887-2.128-.874h-4.46l-11.845-11.849c-.75015144-.7501901-1.76759833-1.17164575-2.8285-1.17164575s-2.07834856.42145565-2.8285 1.17164575l-.037.039c-.7501901.75015144-1.17164575 1.76759833-1.17164575 2.8285s.42145565 2.07834856 1.17164575 2.8285l11.849 11.843v4.46c.0017992.800746.3190462 1.568534.883 2.137l14.8 14.8c-1.0579329.1392092-2.0864799.4481785-3.046.915-.031.012-.058.028-.087.042-3.40449 1.6816821-5.5595394 5.1498159-5.5595394 8.947s2.1550494 7.2653179 5.5595394 8.947c.029.014.056.03.087.042 2.7461627 1.3480041 5.9618373 1.3480041 8.708 0 .031-.012.058-.028.087-.042 2.9749515-1.4825334 5.0199632-4.3451001 5.458-7.64l7.639 7.639c.7454287.7091404 1.7459127 1.0867564 2.774 1.047 2.490305-.1968901 4.8115825-1.336784 6.49-3.187 1.3790514-1.3248231 2.397768-2.9792051 2.96-4.807.5678561-1.5214258.2544372-3.2317869-.816-4.453zm-15.567-1.3 2.866-2.866 1.439 1.439-2.866 2.869zm-2.854-2.851 2.866-2.866 1.44 1.44-2.866 2.866zm-2.853-2.853 2.866-2.866 1.439 1.439-2.866 2.866zm11.426 5.694 1.436 1.436-2.866 2.866-1.436-1.436zm2.488 3.219 1.424 3.559-3.559-1.424zm-15.353-13.181.037-.037c.37509602-.37524801.88392663-.58607293 1.4145-.58607293s1.03940398.21082492 1.4145.58607293l.025.025-2.866 2.866-.025-.025c-.37524801-.37509602-.58607293-.88392663-.58607293-1.4145s.21082492-1.03940398.58607293-1.4145zm32.425 53.623v-1.235c0-.5522847-.4477153-1-1-1s-1 .4477153-1 1v2.411c-.6412573.2594471-1.3135811.4342513-2 .52v-2.931c0-.5522847-.4477153-1-1-1s-1 .4477153-1 1v2.931c-.6864189-.0857487-1.3587427-.2605529-2-.52v-2.411c0-.5522847-.4477153-1-1-1s-1 .4477153-1 1v1.235c-1.8960435-1.5140605-3.000123-3.8086117-3.000123-6.235s1.1040795-4.7209395 3.000123-6.235v1.235c0 .5522847.4477153 1 1 1s1-.4477153 1-1v-2.411c.6412573-.2594471 1.3135811-.4342513 2-.52v2.931c0 .5522847.4477153 1 1 1s1-.4477153 1-1v-2.931c.6864189.0857487 1.3587427.2605529 2 .52v2.411c0 .5522847.4477153 1 1 1s1-.4477153 1-1v-1.235c1.8960435 1.5140605 3.000123 3.8086117 3.000123 6.235s-1.1040795 4.7209395-3.000123 6.235zm22.833-4.766c-.4678756 1.4935392-1.3074611 2.843758-2.44 3.924-2.529 2.527-5.42 3.155-6.436 2.14l-9.091-9.091c-.5087155-3.1946681-2.5293452-5.9468215-5.425-7.389-.029-.014-.056-.03-.087-.042-.8845308-.4299404-1.8282494-.7255265-2.8-.877l-16.238-16.242c-.1937157-.1946517-.3035501-.4573928-.306-.732v-3.391l5.765 2.307c.3714617.1486873.7957948.0616423 1.0787186-.2212814.2829237-.2829238.3699687-.7072569.2212814-1.0787186l-2.306-5.766h3.391c.270787.0024477.5300285.1100168.723.3l33.65 33.65c.5290526.7274368.6426317 1.6773363.3 2.509z"/><path id="Shape" d="m29.274 27.86c-.3923789-.3789722-1.0160848-.3735524-1.4018186.0121814s-.3911536 1.0094397-.0121814 1.4018186l16.407 16.407c.2510745.2599566.6228779.3642126.9725073.2726972.3496295-.0915155.6226744-.3645604.7141899-.7141899.0915154-.3496294-.0127406-.7214328-.2726972-.9725073z"/><path id="Shape" d="m49.248 47.834c-.2510745-.2599566-.6228779-.3642126-.9725073-.2726972-.3496295.0915155-.6226744.3645604-.7141899.7141899-.0915154.3496294.0127406.7214328.2726972.9725073l4.993 4.994c.3923789.3789722 1.0160848.3735524 1.4018186-.0121814s.3911536-1.0094397.0121814-1.4018186z"/><path id="Shape" d="m27 49c-.5522847 0-1 .4477153-1 1v2c0 .5522847.4477153 1 1 1s1-.4477153 1-1v-2c0-.5522847-.4477153-1-1-1z"/><path id="Shape" d="m31 49c-.5522847 0-1 .4477153-1 1v2c0 .5522847.4477153 1 1 1s1-.4477153 1-1v-2c0-.5522847-.4477153-1-1-1z"/><path id="Shape" d="m35 49c-.5522847 0-1 .4477153-1 1v2c0 .5522847.4477153 1 1 1s1-.4477153 1-1v-2c0-.5522847-.4477153-1-1-1z"/><path id="Shape" d="m58.124 13.421c.2859576-.7083187.4326357-1.465137.432-2.229-.0911157-3.50210997-2.9975927-6.2708647-6.5-6.192-1.2847591.00136812-2.5420354.37209453-3.622 1.068-1.2985036-3.29751269-4.6130981-5.34646959-8.1432496-5.03384879s-6.4330853 2.91218543-7.1318874 6.38657418c-.698802 3.47438871.973357 6.99413951 4.108137 8.64727461-.1754263.4706481-.2658313.9687225-.267 1.471.0606148 2.5189816 2.1478485 4.5140854 4.667 4.461h14.666c2.5189361.0525315 4.6058416-1.9422586 4.667-4.461-.0216672-1.8331473-1.1623947-3.4664977-2.876-4.118zm-23.124-4.421c-.0135402-3.03684131 2.2501966-5.60211305 5.2651327-5.96646041 3.014936-.36434736 5.8245936 1.58781758 6.5348673 4.54046041-.2349121.30053097-.4408316.62263597-.615.962-1.3754176-.27788248-2.802454.0872213-3.8754146.9915154s-1.6744926 2.2488731-1.6335854 3.6514846c-.857298.1796359-1.6473402.5952653-2.281 1.2-2.0699855-.9930975-3.3891227-3.0831236-3.395-5.379zm21.333 11h-14.666c-1.4146316.0530162-2.6063724-1.0466741-2.667-2.461.03382-.6900315.3416056-1.3380373.8550709-1.80025.5134654-.4622127 1.1901519-.7004117 1.8799291-.66175.3563378.0547439.7145575-.0865551.9375677-.3698217.2230103-.2832665.2762837-.6646439.1394323-.9981783-.0993593-.2499707-.1486261-.5170308-.145-.786.0600974-1.4143174 1.2513781-2.5144423 2.666-2.462.3688859.0009886.7342745.0715557 1.077.208.259231.1015995.5490833.0905215.7998032-.0305681.25072-.1210895.439604-.3412256.5211968-.6074319.6290371-1.84343492 2.3775633-3.06881827 4.325-3.031 2.3978798-.07876986 4.4088482 1.79455891 4.5 4.192.0001916.8346646-.2633531 1.6480482-.753 2.324-.2126607.2957086-.2477199.6836579-.0915181 1.0127008.1562017.3290428.4789568.5471322.8425181.5692992 1.3312025.0419421 2.401334 1.1098861 2.446 2.441-.0606276 1.4143259-1.2523684 2.5140162-2.667 2.461z"/></g></g></g></svg>