<svg height="512" viewBox="0 0 58 58" width="512" xmlns="http://www.w3.org/2000/svg"><g id="Page-1" fill="none" fill-rule="evenodd"><g id="038---UI-Graphic-Design" fill-rule="nonzero" transform="translate(-1)"><path id="Shape" d="m41 54-11 1-11-1 3-6 8-1 8 1z" fill="#35495e"/><path id="Shape" d="m47 56c-.0032948 1.1032019-.8967981 1.9967052-2 2h-30c-1.1011688-.0081672-1.9918328-.8988312-2-2 .0032948-1.1032019.8967981-1.9967052 2-2h30c1.1011688.0081672 1.9918328.8988312 2 2z" fill="#547580"/><path id="Shape" d="m59 40v5.82c.0452102 1.152631-.8477494 2.1259569-2 2.18h-54c-1.15225064-.0540431-2.04521019-1.027369-2-2.18v-5.82z" fill="#547580"/><path id="Shape" d="m59 2.18.0000118 39.82h-14.0000118v-42h11.846c1.1954223.01044643 2.1578967.98453843 2.154 2.18z" fill="#7d6599"/><path id="Rectangle-path" d="m6 4h40v38h-40z" fill="#84b5cb"/><path id="Shape" d="m33.76 4c-10.44 3.18-21.54 8.88-27.76 19.1v-19.1z" fill="#9fc9d3"/><path id="Shape" d="m46 0v6h-38v36h-7v-39.82c-.04521019-1.152631.84774936-2.12595691 2-2.18z" fill="#f0c419"/><path id="Shape" d="m46 0v1.21c-6.1515374.94476741-12.1831344 2.55073459-17.99 4.79h-20.01v14.17c-4.27 5.58-7 12.72-7 21.83v-39.82c-.04521019-1.152631.84774936-2.12595691 2-2.18z" fill="#f3d55b"/><circle id="Oval" cx="52.5" cy="7.5" fill="#3b97d3" r="2.5"/><circle id="Oval" cx="52.5" cy="16.5" fill="#24ae5f" r="2.5"/><circle id="Oval" cx="52.5" cy="25.5" fill="#e64c3c" r="2.5"/><circle id="Oval" cx="52.5" cy="34.5" fill="#f0c419" r="2.5"/><g fill="#f29c1f"><path id="Shape" d="m13 5v1h-2v-1c0-.55228475.4477153-1 1-1s1 .44771525 1 1z"/><path id="Shape" d="m17 4v2h-2v-2c0-.55228475.4477153-1 1-1s1 .44771525 1 1z"/><path id="Shape" d="m21 5v1h-2v-1c0-.55228475.4477153-1 1-1s1 .44771525 1 1z"/><path id="Shape" d="m25 4v2h-2v-2c0-.55228475.4477153-1 1-1s1 .44771525 1 1z"/><path id="Shape" d="m29 5v1h-2v-1c0-.55228475.4477153-1 1-1s1 .44771525 1 1z"/><path id="Shape" d="m33 4v2h-2v-2c0-.55228475.4477153-1 1-1s1 .44771525 1 1z"/><path id="Shape" d="m37 5v1h-2v-1c0-.55228475.4477153-1 1-1s1 .44771525 1 1z"/><path id="Shape" d="m41 4v2h-2v-2c0-.55228475.4477153-1 1-1s1 .44771525 1 1z"/><path id="Shape" d="m8 37v2h-2c-.55228475 0-1-.4477153-1-1s.44771525-1 1-1z"/><path id="Shape" d="m8 33v2h-1c-.55228475 0-1-.4477153-1-1s.44771525-1 1-1z"/><path id="Shape" d="m8 29v2h-2c-.55228475 0-1-.4477153-1-1s.44771525-1 1-1z"/><path id="Shape" d="m8 25v2h-1c-.55228475 0-1-.4477153-1-1s.44771525-1 1-1z"/><path id="Shape" d="m8 21v2h-2c-.55228475 0-1-.4477153-1-1s.44771525-1 1-1z"/><path id="Shape" d="m8 17v2h-1c-.55228475 0-1-.4477153-1-1s.44771525-1 1-1z"/><path id="Shape" d="m8 13v2h-2c-.55228475 0-1-.4477153-1-1s.44771525-1 1-1z"/><path id="Shape" d="m8 9v2h-1c-.55228475 0-1-.4477153-1-1 0-.55228475.44771525-1 1-1z"/><path id="Shape" d="m8 3c-.55228475 0-1 .44771525-1 1v1h-1c-.55228475 0-1 .44771525-1 1s.44771525 1 1 1h2c.55228475 0 1-.44771525 1-1v-2c0-.55228475-.44771525-1-1-1z"/></g><circle id="Oval" cx="17" cy="15" fill="#f3d55b" r="3"/><path id="Shape" d="m14.155 35.412 6.09-8.374c.1813554-.2493769.4676142-.4011437.7757949-.4113056.3081807-.010162.6038156.1224174.8012051.3593056l3.321 3.985c.2019161.2423213.5063243.3751748.8213.3584417s.6035946-.1810912.7787-.4434417l8.514-12.772c.1751054-.2623505.4637243-.4267086.7787-.4434417s.6193839.1161204.8213.3584417l3.911 4.693c.1498017.1796357.2318948.4060993.232.64v12.638c0 .5522847-.4477153 1-1 1h-25.036c-.3761117.0000523-.7204443-.2109371-.8911743-.5460658-.1707299-.3351288-.1389794-.7377122.0821743-1.0419342z" fill="#464f5d"/></g></g></svg>