<svg id="Layer_5" enable-background="new 0 0 64 64" height="512" viewBox="0 0 64 64" width="512" xmlns="http://www.w3.org/2000/svg"><g><g><g><path d="m15 46c-2.67 0-4.92 1.74-5.7 4.14-.42-.09-.85-.14-1.3-.14-.43 0-.85.04-1.25.13l8.24-20.62h.01c1.56 1.76 1.88 7.49 4 7.49 2.5 0 2.5-8 5-8 2.19 0 2.46 6.12 4.17 7.66l.05.02-4.71 12.35c-.17-.02-.34-.03-.51-.03-.9 0-1.74.26-2.47.68-.91-2.16-3.04-3.68-5.53-3.68z" fill="#cf9e76"/></g><g><path d="m50.85 23.73 11.15 29.27v3c0-3.31-2.69-6-6-6-.73 0-1.42.14-2.06.37-.32-2.46-2.39-4.37-4.94-4.37-1.78 0-3.33.94-4.22 2.34-.55-.21-1.15-.34-1.78-.34-2.46 0-4.5 1.78-4.91 4.13-.35-.08-.72-.13-1.09-.13-.77 0-1.49.17-2.14.48-1.09-1.5-2.86-2.48-4.86-2.48-1.14 0-2.21.33-3.12.88-.82-1.01-2-1.71-3.37-1.85l4.71-12.35 3.73-9.8 1.21-3.17c1.42 1.97 1.8 7.29 3.84 7.29 2.49 0 2.49-8 4.99-8 2.51 0 2.51 8 5.01 8 2.03 0 2.41-5.28 3.82-7.26z" fill="#cf9e76"/></g><g><path d="m30 62h-22c-3.31 0-6-2.69-6-6 0-2.88 2.04-5.29 4.75-5.87.4-.09.82-.13 1.25-.13.45 0 .88.05 1.3.14.78-2.4 3.03-4.14 5.7-4.14 2.49 0 4.62 1.52 5.53 3.68.73-.42 1.57-.68 2.47-.68.17 0 .34.01.51.03 1.37.14 2.55.84 3.37 1.85.91-.55 1.98-.88 3.12-.88 2 0 3.77.98 4.86 2.48-1.69.8-2.86 2.53-2.86 4.52 0 1.49.65 2.83 1.68 3.74-1.01.79-2.29 1.26-3.68 1.26z" fill="#a0d468"/></g><g><path d="m56 50c3.31 0 6 2.69 6 6s-2.69 6-6 6h-19c-1.27 0-2.43-.48-3.32-1.26-1.03-.91-1.68-2.25-1.68-3.74 0-1.99 1.17-3.72 2.86-4.52.65-.31 1.37-.48 2.14-.48.37 0 .74.05 1.09.13.41-2.35 2.45-4.13 4.91-4.13.63 0 1.23.13 1.78.34.89-1.4 2.44-2.34 4.22-2.34 2.55 0 4.62 1.91 4.94 4.37.64-.23 1.33-.37 2.06-.37z" fill="#b4dd7f"/></g><g><path d="m50.85 23.73-.03.01c-1.41 1.98-1.79 7.26-3.82 7.26-2.5 0-2.5-8-5.01-8-2.5 0-2.5 8-4.99 8-2.04 0-2.42-5.32-3.84-7.29l3.42-8.97c.85-2.25 3.01-3.74 5.42-3.74 1.2 0 2.35.37 3.3 1.03.94.65 1.7 1.59 2.12 2.71z" fill="#b4dd7f"/></g><g><path d="m25.56 17.21c1.76.48 3.23 1.76 3.93 3.5l2.46 6.17-3.73 9.8-.05-.02c-1.71-1.54-1.98-7.66-4.17-7.66-2.5 0-2.5 8-5 8-2.12 0-2.44-5.73-4-7.49h-.01l1.51-3.77 2.01-5.03c.45-1.12 1.22-2.05 2.17-2.69.96-.65 2.11-1.02 3.32-1.02.54 0 1.06.07 1.56.21z" fill="#b4dd7f"/></g><g><path d="m26 14c0 1.11-.15 2.19-.44 3.21-.5-.14-1.02-.21-1.56-.21-1.21 0-2.36.37-3.32 1.02-.95.64-1.72 1.57-2.17 2.69l-2.01 5.03c-.81.17-1.64.26-2.5.26-6.63 0-12-5.37-12-12s5.37-12 12-12 12 5.37 12 12z" fill="#fcd770"/></g></g><g><path d="m48.358 14.382c-.999-2.621-3.553-4.382-6.358-4.382s-5.359 1.761-6.358 4.382l-3.713 9.746-1.515-3.786c-.696-1.738-2.032-3.057-3.672-3.765.17-.844.258-1.707.258-2.577 0-7.168-5.832-13-13-13s-13 5.832-13 13 5.832 13 13 13c.315 0 .629-.026.943-.049l-8.936 22.338c-2.883.856-5.007 3.546-5.007 6.711 0 3.86 3.141 7 7 7h22c1.304 0 2.539-.369 3.632-1.038.961.654 2.12 1.038 3.368 1.038h19c3.859 0 7-3.14 7-7v-3.184zm-13.183 36.91c-1.318-1.446-3.2-2.292-5.175-2.292-1.005 0-1.996.219-2.909.639-.642-.608-1.413-1.049-2.237-1.321l8.378-21.992c.105.319.209.646.311.973.722 2.31 1.468 4.701 3.452 4.701 1.985 0 2.732-2.391 3.454-4.702.335-1.071 1.031-3.298 1.545-3.298.516 0 1.213 2.228 1.548 3.299.723 2.311 1.47 4.701 3.455 4.701s2.733-2.39 3.456-4.702c.103-.328.207-.656.313-.977l9.081 23.837c-1.105-.73-2.426-1.158-3.847-1.158-.443 0-.885.043-1.322.129-.793-2.418-3.064-4.129-5.678-4.129-1.801 0-3.473.8-4.606 2.173-.464-.115-.93-.173-1.394-.173-2.58 0-4.822 1.639-5.651 4.011-.759-.047-1.49.059-2.174.281zm-19.629-17.994c.722 2.312 1.468 4.702 3.452 4.702s2.731-2.39 3.453-4.701c.335-1.071 1.031-3.299 1.546-3.299.516 0 1.212 2.228 1.547 3.298.436 1.391.854 2.712 1.518 3.604l-4.236 11.119c-.622.017-1.244.121-1.844.342-1.256-2.071-3.507-3.363-5.982-3.363-2.749 0-5.2 1.589-6.339 4.033-.131-.013-.26-.012-.389-.018l6.832-17.08c.155.444.302.915.442 1.363zm21.965-18.204c.705-1.851 2.509-3.094 4.489-3.094s3.784 1.243 4.489 3.094l3.248 8.526c-.485.863-.848 1.98-1.192 3.081-.335 1.071-1.032 3.299-1.548 3.299s-1.212-2.228-1.547-3.298c-.722-2.311-1.47-4.702-3.456-4.702-1.984 0-2.731 2.39-3.453 4.701-.335 1.071-1.031 3.299-1.546 3.299-.514 0-1.235-2.312-1.543-3.298-.344-1.101-.706-2.217-1.19-3.08zm-8.954 5.991 2.321 5.802-2.86 7.508c-.199-.533-.387-1.128-.564-1.693-.724-2.312-1.472-4.702-3.457-4.702s-2.732 2.391-3.454 4.702c-.335 1.071-1.031 3.298-1.545 3.298s-1.209-2.228-1.543-3.298c-.392-1.257-.778-2.437-1.333-3.314l3.321-8.303c.75-1.874 2.538-3.085 4.557-3.085s3.807 1.211 4.557 3.085zm-14.557 3.915c-6.065 0-11-4.935-11-11s4.935-11 11-11 11 4.935 11 11c0 .696-.088 1.382-.217 2.059-.259-.03-.518-.059-.783-.059-2.841 0-5.358 1.705-6.414 4.342l-1.799 4.499c-.59.096-1.187.159-1.787.159zm-6 36c-2.757 0-5-2.243-5-5 0-3.109 2.87-5.585 6.081-4.879l.886.194.28-.861c.672-2.066 2.582-3.454 4.753-3.454 2.018 0 3.828 1.203 4.61 3.063l.438 1.041.98-.56c1.752-1.001 3.865-.535 5.072.965l.551.684.75-.458c.787-.481 1.687-.735 2.599-.735 1.234 0 2.415.465 3.323 1.272-1.406 1.1-2.323 2.813-2.323 4.728 0 1.309.426 2.518 1.141 3.505-.664.317-1.386.495-2.141.495zm48 0h-19c-2.206 0-4-1.794-4-4s1.794-4 4-4c.275 0 .561.034.871.103l1.02.227.182-1.028c.421-2.375 2.903-3.966 5.349-3.026l.766.294.438-.694c.74-1.175 2.002-1.876 3.374-1.876 1.996 0 3.692 1.503 3.944 3.498l.157 1.246 1.18-.432c.563-.208 1.141-.312 1.719-.312 2.757 0 5 2.243 5 5s-2.243 5-5 5z"/><path d="m15 51h-2c0 2.206 1.794 4 4 4v-2c-1.103 0-2-.897-2-2z"/><path d="m7 54v2c.408 0 1 .779 1 2h2c0-2.243-1.317-4-3-4z"/><path d="m24 55v2c.408 0 1 .779 1 2h2c0-2.243-1.317-4-3-4z"/><path d="m38 58h2c0-1.103.897-2 2-2v-2c-2.206 0-4 1.794-4 4z"/><path d="m49 51v2c.408 0 1 .779 1 2h2c0-2.243-1.317-4-3-4z"/><path d="m55 54v2c1.103 0 2 .897 2 2h2c0-2.206-1.794-4-4-4z"/><path d="m7 14h-2c0 4.962 4.037 9 9 9v-2c-3.859 0-7-3.14-7-7z"/></g></g></svg>